<svg width="32" height="32" viewBox="0 0 32 32" fill="none" xmlns="http://www.w3.org/2000/svg">
<path d="M16.0001 29.3337C14.1779 29.3337 12.4556 28.9837 10.8334 28.2837C9.21119 27.5837 7.79453 26.6281 6.58341 25.417C5.3723 24.2059 4.41675 22.7892 3.71675 21.167C3.01675 19.5448 2.66675 17.8225 2.66675 16.0003C2.66675 14.1337 3.0223 12.3892 3.73341 10.767C4.44453 9.14477 5.41675 7.73366 6.65008 6.53366C7.88341 5.33366 9.32786 4.38921 10.9834 3.70033C12.639 3.01144 14.4112 2.66699 16.3001 2.66699C18.0556 2.66699 19.7223 2.96144 21.3001 3.55033C22.8779 4.13921 24.2612 4.95588 25.4501 6.00033C26.639 7.04477 27.5834 8.28366 28.2834 9.71699C28.9834 11.1503 29.3334 12.7225 29.3334 14.4337C29.3334 16.8337 28.6334 18.7281 27.2334 20.117C25.8334 21.5059 23.9779 22.2003 21.6667 22.2003H19.1667C18.7667 22.2003 18.4223 22.3559 18.1334 22.667C17.8445 22.9781 17.7001 23.3225 17.7001 23.7003C17.7001 24.1448 17.8612 24.567 18.1834 24.967C18.5056 25.367 18.6667 25.8448 18.6667 26.4003C18.6667 26.9781 18.3945 27.6114 17.8501 28.3003C17.3056 28.9892 16.689 29.3337 16.0001 29.3337ZM8.23341 16.867C8.67786 16.867 9.06675 16.7003 9.40008 16.367C9.73341 16.0337 9.90008 15.6448 9.90008 15.2003C9.90008 14.7559 9.73341 14.367 9.40008 14.0337C9.06675 13.7003 8.67786 13.5337 8.23341 13.5337C7.78897 13.5337 7.40008 13.7003 7.06675 14.0337C6.73341 14.367 6.56675 14.7559 6.56675 15.2003C6.56675 15.6448 6.73341 16.0337 7.06675 16.367C7.40008 16.7003 7.78897 16.867 8.23341 16.867ZM12.4334 11.2003C12.8779 11.2003 13.2667 11.0337 13.6001 10.7003C13.9334 10.367 14.1001 9.9781 14.1001 9.53366C14.1001 9.08921 13.9334 8.70033 13.6001 8.36699C13.2667 8.03366 12.8779 7.86699 12.4334 7.86699C11.989 7.86699 11.6001 8.03366 11.2667 8.36699C10.9334 8.70033 10.7667 9.08921 10.7667 9.53366C10.7667 9.9781 10.9334 10.367 11.2667 10.7003C11.6001 11.0337 11.989 11.2003 12.4334 11.2003ZM19.5667 11.2003C20.0112 11.2003 20.4001 11.0337 20.7334 10.7003C21.0667 10.367 21.2334 9.9781 21.2334 9.53366C21.2334 9.08921 21.0667 8.70033 20.7334 8.36699C20.4001 8.03366 20.0112 7.86699 19.5667 7.86699C19.1223 7.86699 18.7334 8.03366 18.4001 8.36699C18.0667 8.70033 17.9001 9.08921 17.9001 9.53366C17.9001 9.9781 18.0667 10.367 18.4001 10.7003C18.7334 11.0337 19.1223 11.2003 19.5667 11.2003ZM23.9334 16.867C24.3779 16.867 24.7667 16.7003 25.1001 16.367C25.4334 16.0337 25.6001 15.6448 25.6001 15.2003C25.6001 14.7559 25.4334 14.367 25.1001 14.0337C24.7667 13.7003 24.3779 13.5337 23.9334 13.5337C23.489 13.5337 23.1001 13.7003 22.7667 14.0337C22.4334 14.367 22.2667 14.7559 22.2667 15.2003C22.2667 15.6448 22.4334 16.0337 22.7667 16.367C23.1001 16.7003 23.489 16.867 23.9334 16.867Z" fill="#C2C5D7"/>
</svg>
