<?xml version="1.0" encoding="utf-8"?>
<!-- Generator: Adobe Illustrator 26.1.0, SVG Export Plug-In . SVG Version: 6.00 Build 0)  -->
<svg version="1.2" baseProfile="tiny" id="Layer_1" xmlns="http://www.w3.org/2000/svg" xmlns:xlink="http://www.w3.org/1999/xlink"
	 x="0px" y="0px" width="512px" height="512px" viewBox="0 0 512 512" overflow="visible" xml:space="preserve">
<path fill="#FFFFFF" d="M435.6,183.8c-7.2-50.4-33.4-86.9-80.6-107.1c-35-15-71.9-16.6-109-11.3c-28.2,4-54.4,13.6-75.6,33.7
	c-32.1,30.4-47.2,68.8-52.9,111.7c-0.5,4.1-0.4,7.9,3.6,10.8c2.6,1.9,2.8,4.6,0.7,7.4c-2.1,2.9-4.2,5.8-6.1,8.8
	c-8.9,13.6-18.3,26.9-25.6,41.4c-4.7,9.3-2.8,13.9,7,17.7c3.1,1.2,6.2,2.3,9.3,3.4c5.3,1.9,6.6,5,4.8,10.7
	c-4.5,13.4-3.8,14.3,8.6,19.1c-11.1,6.3-11.4,9-1.5,16.5c4.3,3.2,5.2,6.3,2.9,11c-3,6.3-4.7,12.9-4.8,19.9
	c-0.2,11.8,4.6,18.5,15.5,22.7c9.1,3.5,18.1,3.3,27.5,1.3c8.2-1.8,16.5-3.2,25-3.3c9.3-0.1,12.4,2.4,13.8,11.7
	c1.4,9.8,2.6,19.7,3.6,29.6c0.6,6.1,3,8.4,9.7,8.4c56.1-0.3,112.3-0.2,168.4-0.3c2.9,0,6,0.8,8.9-0.9c0.3-2.9-1.5-4.9-2.6-7.2
	c-11.4-22.7-15.8-46.7-14.4-71.9c1.4-24.3,6.7-46.8,25.4-64.4c5.3-5,9.5-11.3,13.7-17.3C432.2,255.1,440.9,221.1,435.6,183.8z
	 M402,228.4c-2.7,4.5-6.5,7.7-10.9,10.4c1.3,20.4-9.4,33.5-31.4,26.7c-3.2,11.5-6.2,23.8-19,28.4c-12.5,4.5-22.2-1.6-31.1-11.6
	c-2.1,9.1-3.8,16.9-5.6,24.6c-3.8,1.2-7.4,0.7-11.4,0.4c-3.3-10-7-19.9-10-30.1c-4.4-14.7-14.4-22.2-29.2-24.1
	c-5.5-0.7-11-1.9-15.6-5c-12-7.9-13.3-11.9-9.3-27.1c-12.3-0.7-24.3-2.8-36.3-4.9c-10.5-1.8-19.4-6.7-18.5-20.7
	c-15.2-6.5-20-23.1-11.2-37.3c4-6.4,8.4-12.1,14.9-16c1.7-1,2.4-2,2.4-4.1c0-8.7,5.4-12.4,13.3-13.4c2.6-0.3,4.6-0.8,6.1-3.5
	c5.9-10.6,15.9-14,27.3-13.5c5.5,0.2,9.6-0.9,13.6-4.9c6-6.2,14.3-7.8,21.9-5.4c5.6,1.8,9.6,0.7,14.4-1.1
	c10.1-3.8,20.4-4.6,29.8,2.1c2.2,1.6,4,1.2,6.3,0.7c11.6-2.3,18.5,0.9,25.1,11.9c12-4.3,20.8-0.4,27,9.8c1.5,2.5,3.5,3,6.1,3.7
	c6.6,1.8,11.8,5.3,11.6,13.1c-0.1,3,1.9,3.8,3.7,5.2c7.6,6.1,13.2,13.2,8.1,23.6c-1.5,3.1,0.9,4,2.2,5.7
	C407.7,186.2,410.5,214.2,402,228.4z"/>
<g>
	<path fill="#FFFFFF" d="M293.7,220.9c-3.8,0-7.7-0.1-11.5,0c-2.8,0.1-4.3-1.3-4.3-3.8c0-5-2.4-9.1-5-13.1c-1.8-2.8-3.7-5.7-5.4-8.6
		c-7.1-12.5-6.7-28.1,3.8-38.9c6.9-7.1,15.4-10,25.6-9.3c11.9,0.7,24.2,11.8,26.6,22.2c2.2,9.7,0.9,18.9-4.4,27.4
		c-2,3.3-4,6.6-6.2,9.7c-2,3-3.1,6.2-3.4,9.7c-0.3,3.9-1.2,4.7-5.2,4.7C300.8,220.9,297.3,220.9,293.7,220.9z M276.3,188.1
		c1.3-2.4,0.7-4.8,1.1-7c2.1-10.7,11.7-19.4,23-20.5c0.9-0.1,2.2,0.3,2.4-0.8c0.1-1.2-1.3-1.3-2.2-1.6c-9.1-3-18.5,0.1-24,7.9
		C272.1,172.2,271.9,182.2,276.3,188.1z"/>
	<path fill="#FFFFFF" d="M293.8,227c3.5,0,7,0,10.4,0c3.9,0.1,5.3,1.5,5.3,5.3c0,2,0,4,0,6c-0.1,2.8-1.4,4.3-4.2,4.4
		c-2.1,0.1-3.6,1-5,2.4c-3.8,3.7-9.7,3.7-13.6-0.1c-1.4-1.3-2.8-2.2-4.8-2.3c-2.8-0.1-4.1-1.6-4.2-4.4c-0.1-2.2-0.1-4.4,0-6.6
		c0.1-3.2,1.6-4.7,4.8-4.8C286.3,226.9,290.1,227,293.8,227C293.8,227,293.8,227,293.8,227z"/>
	<path fill="#FFFFFF" d="M349.8,183.6c-2.5,0-4.9,0.1-7.4,0c-3.2-0.1-5.3-2.1-5.3-5.1c-0.1-2.9,1.7-5.1,4.9-5.2
		c5.6-0.2,11.1-0.2,16.7,0c2.7,0.1,4.6,2.3,4.7,4.8c0.1,2.7-1.7,4.8-4.5,5.3c-0.3,0-0.5,0.1-0.8,0.1
		C355.3,183.5,352.6,183.5,349.8,183.6C349.8,183.5,349.8,183.6,349.8,183.6z"/>
	<path fill="#FFFFFF" d="M236.8,183.6c-2.6,0-5.1,0.1-7.7,0c-2.7-0.1-4.8-2-5.1-4.5c-0.3-2.5,1.5-5.3,4.2-5.6c6-0.6,12-0.6,18,0
		c2.7,0.3,4.1,2.6,3.9,5.1c-0.2,2.8-2,4.6-4.6,4.9c-0.2,0-0.4,0-0.5,0C242.3,183.6,239.5,183.6,236.8,183.6z"/>
	<path fill="#FFFFFF" d="M288.8,121.8c0-2.7-0.1-5.5,0-8.2c0.1-2.8,2.1-4.8,4.5-5c2.5-0.1,4.7,1.7,5.2,4.3
		c1.2,6.1,0.6,12.2-0.1,18.3c-0.3,2.5-2.2,3.7-5,3.5c-2.8-0.1-4.4-1.5-4.6-4.1C288.7,127.7,288.8,124.7,288.8,121.8
		C288.8,121.8,288.8,121.8,288.8,121.8z"/>
	<path fill="#FFFFFF" d="M344.2,224.1c0.1,2.1-0.7,3.7-2.7,4.6c-1.9,0.9-3.8,0.6-5.4-0.8c-4-3.9-8-7.8-11.8-11.8
		c-2-2.1-1.9-4.8,0-6.7c1.9-1.9,4.9-2.3,7-0.4c4.1,3.9,8.1,8,12.1,12C344.1,221.8,344.2,222.9,344.2,224.1z"/>
	<path fill="#FFFFFF" d="M259.5,149c-1.5,0.1-2.9-0.5-3.9-1.6c-3.6-3.5-7.2-7.1-10.6-10.7c-2.4-2.4-2.4-5.5-0.3-7.5
		c2.3-2.2,4.8-2,7.4,0.5c3.6,3.6,7.2,7.2,10.8,10.9c1.6,1.6,2.1,3.4,1.1,5.5C263.1,147.8,261.7,149.1,259.5,149z"/>
	<path fill="#FFFFFF" d="M344.2,132.9c0.1,1.5-0.5,2.6-1.5,3.7c-3.6,3.5-7.1,7.1-10.7,10.6c-2.4,2.3-5.4,2.5-7.4,0.6
		c-2.4-2.2-2.5-4.8,0.1-7.4c3.6-3.8,7.4-7.5,11.2-11.3c1.5-1.5,3.3-1.9,5.3-1C343.1,129.1,344.4,130.5,344.2,132.9z"/>
	<path fill="#FFFFFF" d="M243.2,224c-0.1-1.7,0.7-3,1.8-4.1c3.4-3.4,6.8-6.9,10.3-10.2c2.5-2.4,5.5-2.6,7.6-0.5
		c2.3,2.3,2.2,5-0.4,7.6c-3.6,3.6-7.2,7.2-10.9,10.8c-1.6,1.6-3.5,2.1-5.5,1C244.2,227.6,243,226.2,243.2,224z"/>
</g>
</svg>
