<svg width="24" height="24" viewBox="0 0 24 24" fill="none" xmlns="http://www.w3.org/2000/svg">
<path d="M6.46667 17.4667V19.5667C6.46667 19.8074 6.54573 20.0065 6.70387 20.1639C6.86202 20.3213 7.06202 20.4 7.30387 20.4C7.54573 20.4 7.74444 20.3213 7.9 20.1639C8.05556 20.0065 8.13333 19.8074 8.13333 19.5667V17.4667H10.2333C10.4741 17.4667 10.6731 17.3876 10.8306 17.2295C10.988 17.0713 11.0667 16.8713 11.0667 16.6295C11.0667 16.3876 10.988 16.1889 10.8306 16.0333C10.6731 15.8778 10.4741 15.8 10.2333 15.8H8.13333V13.7C8.13333 13.4593 8.05427 13.2602 7.89613 13.1028C7.73798 12.9454 7.53798 12.8667 7.29613 12.8667C7.05427 12.8667 6.85556 12.9454 6.7 13.1028C6.54444 13.2602 6.46667 13.4593 6.46667 13.7V15.8H4.36667C4.12593 15.8 3.92686 15.8791 3.76943 16.0372C3.61203 16.1954 3.53333 16.3954 3.53333 16.6372C3.53333 16.8791 3.61203 17.0778 3.76943 17.2333C3.92686 17.3889 4.12593 17.4667 4.36667 17.4667H6.46667ZM14.4667 19.2333H19.5333C19.7644 19.2333 19.9556 19.1543 20.1067 18.9961C20.2578 18.838 20.3333 18.638 20.3333 18.3961C20.3333 18.1543 20.2611 17.9611 20.1167 17.8167C19.9722 17.6722 19.7778 17.6 19.5333 17.6H14.4333C14.2022 17.6 14.0111 17.6722 13.86 17.8167C13.7089 17.9611 13.6333 18.1543 13.6333 18.3961C13.6333 18.638 13.712 18.838 13.8694 18.9961C14.0269 19.1543 14.2259 19.2333 14.4667 19.2333ZM14.4667 15.6667H19.5C19.7407 15.6667 19.9398 15.5876 20.0972 15.4295C20.2546 15.2713 20.3333 15.0713 20.3333 14.8295C20.3333 14.5876 20.2546 14.3889 20.0972 14.2333C19.9398 14.0778 19.7407 14 19.5 14H14.4667C14.2259 14 14.0269 14.0791 13.8694 14.2372C13.712 14.3954 13.6333 14.5954 13.6333 14.8372C13.6333 15.0791 13.712 15.2778 13.8694 15.4333C14.0269 15.5889 14.2259 15.6667 14.4667 15.6667ZM16.9 8.2L18.3333 9.63333C18.503 9.81111 18.701 9.9 18.9273 9.9C19.1535 9.9 19.3556 9.81111 19.5333 9.63333C19.7111 9.45556 19.8 9.25556 19.8 9.03333C19.8 8.81111 19.7111 8.61111 19.5333 8.43333L18.1 7L19.5333 5.56667C19.7111 5.39698 19.8 5.199 19.8 4.97273C19.8 4.74647 19.7111 4.54444 19.5333 4.36667C19.3556 4.18889 19.1535 4.1 18.9273 4.1C18.701 4.1 18.503 4.18889 18.3333 4.36667L16.9 5.8L15.4667 4.36667C15.297 4.18889 15.099 4.1 14.8727 4.1C14.6465 4.1 14.4444 4.18889 14.2667 4.36667C14.0889 4.54444 14 4.74647 14 4.97273C14 5.199 14.0889 5.39698 14.2667 5.56667L15.7 7L14.2667 8.43333C14.0889 8.60476 14 8.80476 14 9.03333C14 9.26191 14.0889 9.46191 14.2667 9.63333C14.4364 9.81111 14.6343 9.9 14.8606 9.9C15.0869 9.9 15.2889 9.81111 15.4667 9.63333L16.9 8.2ZM4.86667 7.83333H9.73333C9.97407 7.83333 10.1731 7.75427 10.3306 7.59613C10.488 7.43798 10.5667 7.23798 10.5667 6.99613C10.5667 6.75427 10.488 6.55556 10.3306 6.4C10.1731 6.24444 9.97407 6.16667 9.73333 6.16667H4.86667C4.62593 6.16667 4.42686 6.24573 4.26943 6.40387C4.11203 6.56202 4.03333 6.76202 4.03333 7.00387C4.03333 7.24573 4.11203 7.44444 4.26943 7.6C4.42686 7.75556 4.62593 7.83333 4.86667 7.83333ZM2 24C1.46667 24 1 23.8 0.6 23.4C0.2 23 0 22.5333 0 22V2C0 1.46667 0.2 1 0.6 0.6C1 0.2 1.46667 0 2 0H22C22.5333 0 23 0.2 23.4 0.6C23.8 1 24 1.46667 24 2V22C24 22.5333 23.8 23 23.4 23.4C23 23.8 22.5333 24 22 24H2Z" fill="#C2C5D7"/>
</svg>
